# xmcd
#
# Track frame offsets:
#	150
#	20650
#	35183
#	48925
#	62713
#	76780
#	88630
#	100183
#	112463
#	123975
#	136283
#	149760
#	162790
#	176560
#	188423
#	199315
#	214563
#	229365
#	239365
#	259280
#
# Disc length: 3603 seconds
#
# Revision: 1
# Processed by: cddbd v1.5.2PL0 Copyright (c) Steve Scherf et al.
# Submitted via: audiograbber 1.83.01
#
DISCID=260e1114
DTITLE=101 Strings Orch - Country Greats
DYEAR=1997
DGENRE=Instrumental
TTITLE0=Lovesick Blues
TTITLE1=Cold Cold Heart
TTITLE2=Your Cheatin' Heart
TTITLE3=Have You Ever Been Lonely
TTITLE4=Blue Grass On Fire
TTITLE5=Bouquet Of Roses
TTITLE6=Jambalaya
TTITLE7=Half As Much
TTITLE8=Little Green Apples
TTITLE9=Kaw Liga
TTITLE10=Lonesome Freight
TTITLE11=Take Me Home Country Roads
TTITLE12=By The Time I Get To Phoenix
TTITLE13=Crazy
TTITLE14=King Of The Road
TTITLE15=Ode To Billy Joe
TTITLE16=Rocky Mountain High
TTITLE17=Galveston
TTITLE18=In The Jailhouse Now
TTITLE19=Take These Chains From My Heart
EXTD=
EXTT0=
EXTT1=
EXTT2=
EXTT3=
EXTT4=
EXTT5=
EXTT6=
EXTT7=
EXTT8=
EXTT9=
EXTT10=
EXTT11=
EXTT12=
EXTT13=
EXTT14=
EXTT15=
EXTT16=
EXTT17=
EXTT18=
EXTT19=
PLAYORDER=
